<?xml version="1.0" encoding="utf-8"?>
<!-- Generator: Adobe Illustrator 20.1.0, SVG Export Plug-In . SVG Version: 6.00 Build 0)  -->
<svg version="1.1" id="Layer_1" xmlns="http://www.w3.org/2000/svg" xmlns:xlink="http://www.w3.org/1999/xlink" x="0px" y="0px"
	 viewBox="0 0 369.1 160.7" style="enable-background:new 0 0 369.1 160.7;" xml:space="preserve" preserveAspectRatio="xMinYMin">
<style type="text/css">

		.st0{opacity:0.45;clip-path:url(#SVGID_2_);fill:none;stroke:#488FCD;stroke-width:0.2676;stroke-miterlimit:10;enable-background:new    ;}
</style>
<g>
	<g>
		<g>
			<defs>
				<rect id="SVGID_1_" y="0.7" width="368.6" height="159.2"/>
			</defs>
			<clipPath id="SVGID_2_">
				<use xlink:href="#SVGID_1_"  style="overflow:visible;"/>
			</clipPath>
			<path class="st0" d="M247.1,51.4l-28.3-34.8 M227.5,34.9l19.6,16.6 M199.1-2.5l28.5,37.4 M218.8,16.6L199.1-2.5 M199.1-2.5
				l67.6-54 M275.6-23l-8.9-33.5 M218.8,16.6L275.6-23 M227.5,34.9l111.4-70 M266.7-56.5L334.1-41 M334,3.6L275.6-23 M342.5-30.9
				L334,3.6 M247.1,51.4L334,3.6 M201.9,91.6l-51-49.2 M270.5,74.6l-68.7,17 M154-2.5l116.5,77.1 M150.8,42.4L154-2.5 M154-2.5
				l84.6-62.9 M204.3-1.9l34.3-63.5 M150.8,42.4l53.5-44.3 M270.5,74.6l80.9-95 M238.6-65.4l87.7,15.2 M263.5,28L204.3-1.9
				 M346.2-26.6L263.5,28 M201.9,91.6L263.5,28 M368.6,0.1L245.8,13.8 M257.7-101.9l16.3-10.4 M245.8,13.8l11.9-115.7 M257.7-101.9
				l28.6,4.2 M279.1-16.4l11.6-76.2 M245.8,13.8l33.3-30.2 M342.8-30.6l-63.7,14.2 M155.5,79.6L150.1,36 M103.5,71.4l52,8.3
				 M113.6,20.4l-10.1,51 M150.1,36l-36.5-15.6 M113.6,20.4l52.9-52.2 M197.7-2.1l-31.2-29.7 M150.1,36l47.6-38.1 M103.5,71.4
				L187,3.8 M166.5-31.8L187,3.8 M225.6,35.5L197.7-2.1 M187,3.8l38.6,31.6 M155.5,79.6l70.1-44.2 M61.2,137L43.9,72.9 M-0.5,159.9
				L61.2,137 M-37,47.3l-11.5,55.4 M43.9,72.9l-81-25.6 M-37,47.3L90.4-30.4 M112.3,22.8L90.4-30.4 M43.9,72.9l68.4-50.2 M-13.9,144
				L149.3,17.3 M90.4-30.4l58.9,47.8 M147.8,62.3l-35.5-39.5 M149.3,17.3l-1.5,44.9 M61.2,137l86.6-74.7 M173.1,122.6L78.8,61.3
				 M162.9-244.5l10.2,367.1 M54.7-57.9l20-137.1 M78.8,61.3L54.7-57.9 M54.7-57.9L165-68.6 M167.6,14L165-68.6 M78.8,61.3L167.6,14
				 M165-68.6l85.1-72.3 M287.4-7.6L167.6,14 M299.9-81.6l-12.5,74 M173.1,122.6L287.4-7.6 M-1.4-114l-16.4-3.3 M214,37.2L-1.4-114
				 M-1.4-114l8-23.8 M214,37.2l120.4-77.8 M-19.9,10.6l34.5,40.5 M-1.5,26.8l-18.4-16.2 M34.8,71.1L-1.5,26.8 M14.6,51.1L34.8,71
				 M34.8,71.1l-68.8,49 M14.6,51.1l-71,42.3 M-1.5,26.8L-80.3,65 M-19.9,10.6l-79,32.3 M32-32l57.1,53.2 M-76.3-32.1L32-32
				 M74.8,63L-76.4-32 M89.2,21.2L74.8,63 M74.8,63l-94.6,74 M27.7,70.1L-22.2,134 M89.2,21.2L27.7,70.1 M-76.3-32.1l-49.3,43.2
				 M-47.7,34.8l75.4,35.3 M-90.3,53.1l42.6-18.3 M32-32l-79.8,66.8 M-92.3,50.7l59.3-3.2 M-33,47.4l-15.4,55.5 M-33,47.4
				l-34.4,32.9 M303.6-72.3l-38,49.8 M307.5-72.6l-3.9,0.3 M323.2-19.3l16.4-15.2 M265.5-22.5l57.7,3.2 M323.2-19.3l4.1,27.2
				 M256.4-0.7L327.3,8 M265.5-22.5l-9.1,21.8 M327.3,7.9l28.9-22.5 M302.4-57.6l-46,56.9 M319.5-58.3l-17.1,0.7 M303.6-72.3
				l-1.2,14.6 M335.5-25.6l11.8,0.3 M342.6-30.8l-7.1,5.2 M339.2-34.9l-3.6,9.4 M279.6,2.2l-17.3,25.2 M279.6,2.2l-69.8-1.3
				 M209.3,10.9l22.6,27.6 M209.8,0.9L209.3,11 M231.9,38.5l30.4-11.1 M318.2,5.7l26.6-18.3 M251.3-39.3l93.5,26.8 M283.4-44.9
				L269-7.2 M265.3-60.8l-14.1,21.5 M265.5-4l-0.2-56.8 M297.1-49.5l-13.7,4.6 M329.3-27.6l-32.2-21.9 M269-7.2l36.8-7.1 M341.8-28
				l-12.5,0.4 M305.8-14.3l36-13.7 M323.3-11.5L265.5-4 M318.2,5.7l5.2-17.3 M166.6,20.3l-14-3.2 M152.6,17.1L178.4-11 M178.4-11.1
				l3.5,2.1 M199.9,1.7l7.4,9.2 M207.3,10.9l-2.2,37.5 M170.2,61.1l-3.3-37.7 M205.2,48.3l-34.9,12.8 M140.1,41.7l-24.6-15.3
				 M147,61.5l-6.9-19.8 M110,38.4l5.1,34.8 M115.5,26.4l-5.6,12 M115.1,73.2L147,61.5 M67.9,7.2l28.4,51.3 M96.3,58.4L94,71.2
				 M166.7-15.1L141.3,28 M101.9-21.1l-34,28.3 M132,33l-30.1-54.1 M196.6-34.2L181.9-9 M271.5-4.7l-74.8-29.5 M174.3-18.2l-7.6,3.1
				 M196.5,8.8L181.9-9 M152.2,22.7l14.6,0.7 M168.6,13.8l-16.3,8.9 M195.4,24.9l76.1-29.6 M141.3,28l17.7-1.5 M196.9,11.9l-0.3-3.2
				 M158.9,26.5l7.9-3 M148.6,37.8L132,33 M94.1,71.2l54.5-33.4 M118.4-29.8l52.7,82.4 M219,70.4l-10.2-36.8 M171.2,52.6L219,70.4
				 M158.2-250.1L118.4-29.8 M208.8,33.6l26.1-9.8 M269.1,1.6l-87.5-223.9 M234.9,23.8l26.6-1.8 M261.5,22l7.7-20.4 M38.1,1.5
				l49.5,24.3 M37.4,39.4l0.7-37.9 M35,70.1L16,109 M87.6,25.8L35,70.1 M16,109l-60-28.5 M-44,80.5l81.3-41.1 M-77.8,63.8l98.7,3.1
				 M-46.2,35.5l-31.6,28.3 M21.8,55.2l-27.4-32 M20.9,66.9l0.8-11.8 M-5.6,23.2l-40.6,12.3 M-66,82l3.2-6.1 M-58.1,71.5l-3.2,16.1
				 M-62.8,76l-7.3,1.1 M-73.7,72.9l15.6-1.4 M278.4-28l9.8,10.7 M288.2-17.2l-24.5,7.5 M269.2-18.5l5.7-7.1 M274.9-25.6l3.6-2.3
				 M263.7-9.7l5.5-8.8 M341.1-32.6l-3.8,2.5 M337.3-30.1l3-3.4 M181.9-9l18,10.7 M166.9,23.4l-0.3-3.2 M181.9-9l-13.3,22.8
				 M181.9-9l-7.6-9.2 M166.9,23.4l28.5,1.4 M166.9,23.4l30-11.5"/>
		</g>
	</g>
</g>
</svg>
